<mxfile host="app.diagrams.net" modified="2023-08-25T13:55:49.421Z" agent="Mozilla/5.0 (Macintosh; Intel Mac OS X 10_15_7) AppleWebKit/537.36 (KHTML, like Gecko) Chrome/116.0.0.0 Safari/537.36" version="21.6.9" etag="C_jfzzoneois0mvQelkx" type="github">
  <diagram name="Page-1" id="OjEw5dIj0FATQcDOwG4f">
    <mxGraphModel>
      <root>
        <mxCell id="0" />
        <mxCell id="1" parent="0" />
      </root>
    </mxGraphModel>
  </diagram>
</mxfile>
